{"title":"La.Loi.du.Marche.2015.BRRip.x264.HORiZON-ArtSubs","uid":12681640,"size":1564252841,"categoryP":"video","categoryS":"movies","magnet":"?xt=urn:btih:3781d46dfb4c831a2e2ea199d6ea7f9909ef7fd3&amp;dn=La.Loi.du.Marche.2015.BRRip.x264.HORiZON-ArtSubs&amp;tr=udp%3A%2F%2Ftracker.leechers-paradise.org%3A6969&amp;tr=udp%3A%2F%2Fzer0day.ch%3A1337&amp;tr=udp%3A%2F%2Fopen.demonii.com%3A1337&amp;tr=udp%3A%2F%2Ftracker.coppersurfer.tk%3A6969&amp;tr=udp%3A%2F%2Fexodus.desync.com%3A6969","seeders":12,"leechers":2,"uploader":"lletaif","files":1,"time":1446566503,"description":"General\r\nUnique ID                                : 226564704117066179455592247987473574423 (0xAA72C6594B724603988A0482D6E96A17)\r\nComplete name                            : La.Loi.du.Marche.2015.BRRip.x264.HORiZON-ArtSubs.mkv\r\nFormat                                   : Matroska\r\nFormat version                           : Version 2\r\nFile size                                : 1.46 GiB\r\nDuration                                 : 1h 31mn\r\nOverall bit rate mode                    : Variable\r\nOverall bit rate                         : 2 283 Kbps\r\nEncoded date                             : UTC 2015-10-31 16:27:20\r\nWriting application                      : DVDFab 9.2.0.1\r\nWriting library                          : libebml v0.7.8 + libmatroska v0.8.1\r\n\r\nVideo\r\nID                                       : 1\r\nFormat                                   : AVC\r\nFormat/Info                              : Advanced Video Codec\r\nFormat profile                           :   \r\nFormat settings, CABAC                   : Yes\r\nFormat settings, ReFrames                : 2 frames\r\nCodec ID                                 : V_MPEG4/ISO/AVC\r\nDuration                                 : 1h 31mn\r\nBit rate mode                            : Variable\r\nBit rate                                 : 2 045 Kbps\r\nMaximum bit rate                         : 3 150 Kbps\r\nWidth                                    : 1 280 pixels\r\nHeight                                   : 536 pixels\r\nDisplay aspect ratio                     : 2.40:1\r\nFrame rate mode                          : Constant\r\nFrame rate                               : 23.976 fps\r\nColor space                              : YUV\r\nChroma subsampling                       : 4:2:0\r\nBit depth                                : 8 bits\r\nScan type                                : Progressive\r\nBits/(Pixel*Frame)                       : 0.124\r\nStream size                              : 1.31 GiB (90%)\r\nDefault                                  : Yes\r\nForced                                   : No\r\n\r\nAudio\r\nID                                       : 2\r\nFormat                                   : AC-3\r\nFormat/Info                              : Audio Coding 3\r\nMode extension                           : CM (complete main)\r\nFormat settings, Endianness              : Big\r\nCodec ID                                 : A_AC3\r\nDuration                                 : 1h 31mn\r\nBit rate mode                            : Constant\r\nBit rate                                 : 192 Kbps\r\nChannel(s)                               : 2 channels\r\nChannel positions                        : Front: L R\r\nSampling rate                            : 48.0 KHz\r\nBit depth                                : 16 bits\r\nCompression mode                         : Lossy\r\nStream size                              : 125 MiB (8%)\r\nLanguage                                 : French\r\nDefault                                  : No\r\nForced                                   : No\r\n\r\nMenu\r\n00:00:00.000                             : en:00:00:00.000\r\n00:04:12.669                             : en:00:04:12.669\r\n00:06:15.249                             : en:00:06:15.249\r\n00:09:54.427                             : en:00:09:54.427\r\n00:15:25.549                             : en:00:15:25.549\r\n00:19:04.810                             : en:00:19:04.810\r\n00:23:43.505                             : en:00:23:43.505\r\n00:33:26.212                             : en:00:33:26.212\r\n00:38:35.187                             : en:00:38:35.187\r\n00:44:00.304                             : en:00:44:00.304\r\n00:47:55.706                             : en:00:47:55.706\r\n00:50:54.468                             : en:00:50:54.468\r\n00:56:22.921                             : en:00:56:22.921\r\n01:00:36.549                             : en:01:00:36.549\r\n01:06:20.935                             : en:01:06:20.935\r\n01:07:59.158                             : en:01:07:59.158\r\n01:14:45.022                             : en:01:14:45.022\r\n01:18:25.450                             : en:01:18:25.450\r\n01:23:26.334                             : en:01:23:26.334\r\n01:28:17.375                             : en:01:28:17.375","torrent":{"xt":"urn:btih:3781d46dfb4c831a2e2ea199d6ea7f9909ef7fd3","amp;dn":"La.Loi.du.Marche.2015.BRRip.x264.HORiZON-ArtSubs","amp;tr":["udp%3A%2F%2Ftracker.leechers-paradise.org%3A6969","udp%3A%2F%2Fzer0day.ch%3A1337","udp%3A%2F%2Fopen.demonii.com%3A1337","udp%3A%2F%2Ftracker.coppersurfer.tk%3A6969","udp%3A%2F%2Fexodus.desync.com%3A6969"],"infoHash":"3781d46dfb4c831a2e2ea199d6ea7f9909ef7fd3","infoHashBuffer":{"type":"Buffer","data":[55,129,212,109,251,76,131,26,46,46,161,153,214,234,127,153,9,239,127,211]},"announce":[],"urlList":[]}}